# xmcd
#
# Track frame offsets:
#	150
#	14490
#	30666
#	43012
#	56298
#	66967
#	82512
#	95442
#	108232
#	123277
#	135646
#	147988
#	162994
#	174039
#	184459
#	198325
#	213437
#	226353
#
# Disc length: 3208 seconds
#
# Revision: 0
# Processed by: cddbd v1.5.2PL0 Copyright (c) Steve Scherf et al.
# Submitted via: EasyCDDAExtractor 16.0.6.1
#
DISCID=ed0c8612
DTITLE=Κύπριος Στράτος - Πορτραίτα τραγουδιστών 07-Σ. Κύπριος
DYEAR=2000
DGENRE=Λαϊκή
TTITLE0=Κύπριος Στράτος - Εγώ θα σε γλυτώσω [Γιάννη Παπαϊωάννου-Κώστα Μάνεση]
TTITLE1=Κύπριος Στράτος - Εχθές αργά το δειλινό [Γιάννη Παπαϊωάννου-Κώστα Μάνε
TTITLE1=ση]
TTITLE2=Κύπριος Στράτος - Προσευχή [Σπύρου Ζαγοραίου-Δημήτρη Γκούτη]
TTITLE3=Κύπριος Στράτος-Σακελλαρίου Ρίτα - Ποιος σού 'πε δεν σ' αγαπώ [Απόστολ
TTITLE3=ου Καλδάρα-Ν. Μουρκάκου]
TTITLE4=Κύπριος Στράτος - Μού 'χει γίνει μάθημα [Γ. Βασιλόπουλου-Χρ. Νικολόπου
TTITLE4=λου-Β. Ατραϊδη]
TTITLE5=Κύπριος Στράτος-Σακελλαρίου Ρίτα - Φύγε κι άσε με (Χαριστική βολή)[Π. 
TTITLE5=Γαβαλά-Κώστα Βίρβου-Αναστάσιου Κουλούρη]
TTITLE6=Κύπριος Στράτος - Μην νοιάζεσαι, αν σ' αγαπώ [Θεόδωρου Πολυκανδριώτη]
TTITLE7=Κύπριος Στράτος - Αμάν Κατινάκι μου [Σπύρου Κεφαλόπουλου-Στρ. Βαλλιάνο
TTITLE7=υ-Νότη Χρυσίνη]
TTITLE8=Κύπριος Στράτος - Μην περιμένεις πια [Απόστολου Καλδάρα]
TTITLE9=Κύπριος Στράτος - Πέτρα θα ρίξω πίσω [Απόστολου Καλδάρα]
TTITLE10=Κύπριος Στράτος - Στην καλύβα την δική μου [Γιώργου Μητσάκη]
TTITLE11=Κύπριος Στράτος-Σακελλαρίου Ρίτα - Το κορίτσι μου ζηλεύει [Βασίλη Τσι
TTITLE11=τσάνη]
TTITLE12=Κύπριος Στράτος - Στρώσε μου το κρεβάτι μου [Στέλιου Χρυσίνη-Σπύρου Κ
TTITLE12=εφαλόπουλου]
TTITLE13=Κύπριος Στράτος-Ζανέτ Λίτσα - Ο ουρανός κι αν γκρεμιστεί [Βαγγέλη Σού
TTITLE13=κα-Σαράντη Τζιλιβέρδη]
TTITLE14=Κύπριος Στράτος - Οι ελπίδες μία-μία [Γιάννη Βασιλόπουλου-Σπ. Κεφαλόπ
TTITLE14=ουλου-Στέλιου Χρυσίνη]
TTITLE15=Κύπριος Στράτος - Τώρα σ' αγαπώ [Δημήτρη Ευσταθίου-Στράτου Κύπριου]
TTITLE16=Κύπριος Στράτος - Καρδιοχτύπια και καϋμοί [Στρ. Βαλλιάνου-Σπ. Κεφαλόπ
TTITLE16=ουλου-Στέλιου Χρυσίνη]
TTITLE17=Κύπριος Στράτος-Ζανέτ Λίτσα - Ο ουρανός δεν γκρεμίζεται [Βαγγέλη Σούκ
TTITLE17=α-Πόπης Βασβαντή]
EXTD=
EXTT0=
EXTT1=
EXTT2=
EXTT3=
EXTT4=
EXTT5=
EXTT6=
EXTT7=
EXTT8=
EXTT9=
EXTT10=
EXTT11=
EXTT12=
EXTT13=
EXTT14=
EXTT15=
EXTT16=
EXTT17=
PLAYORDER=
